<?xml version="1.0" encoding="UTF-8" standalone="no"?>
<svg width="680px" 
height="168px" 
viewBox="0 0 680 168" 
version="1.1" xmlns="http://www.w3.org/2000/svg" xmlns:xlink="http://www.w3.org/1999/xlink">
    <!-- Generator: Sketch 3.7.2 (28276) - http://www.bohemiancoding.com/sketch -->
    <title>Page 1</title>
    <desc>Created with Sketch.</desc>
    <defs>
        <polygon 
        id="path-1" 
        points="679.754137 167.545355 679.754137 0.000221498371 0 0.000221498371 0 167.545355 679.754137 167.545355">
        </polygon>
    </defs>
    <g id="Page-1" stroke="none" stroke-width="1" fill="white" fill-rule="white">
        <g>
            <mask id="mask-2" fill="white">
                <use xlink:href="#path-1"></use>
            </mask>
            <g id="Clip-2"></g>
            <path 
            d="M394.622827,128.346788 C398.33514,113.20959 393.789993,99.1245081 382.247713,81.6394267 C371.228169,65.0181889 366.472599,56.4550619 367.00641,43.2847687 C367.6997,25.839557 378.951818,11.838645 395.969537,1.22665798 C387.953511,1.22665798 342.152078,1.29532248 342.152078,1.29532248 C322.440938,15.7680261 315.011883,36.3784495 315.175792,50.6894593 C315.399505,63.7733681 319.488365,73.4240521 328.179961,85.8877655 C335.332143,96.0877655 342.349212,105.042945 342.652664,117.110176 C342.956117,132.351479 331.509081,145.17402 316.622176,155.050632 L362.186606,167.545355 C376.087844,159.106267 390.733316,143.794085 394.622827,128.346788 L394.622827,128.346788 Z M425.53957,39.853759 L454.365368,39.853759 L454.365368,141.397472 L496.421264,141.397472 L496.421264,39.853759 L525.304651,39.853759 L525.304651,3.31538762 L425.53957,3.31538762 L425.53957,39.853759 Z M124.157811,124.04972 L95.3076482,95.206202 C89.4445863,100.989524 81.5658893,104.509134 72.7103844,104.509134 C55.1389186,104.509134 40.8478436,90.2845081 40.8478436,72.628873 C40.8478436,55.075127 55.1389186,40.7818371 72.7103844,40.7818371 C81.599114,40.7818371 89.7413941,44.4232704 95.5645863,50.3106971 L124.423609,21.489329 C111.202371,8.18170684 92.9420456,-0.000442996743 72.7103844,-0.000442996743 C32.5460847,-0.000442996743 -0.000885993485,32.4955831 -0.000885993485,72.628873 C-0.000885993485,112.810893 32.5460847,145.331283 72.7103844,145.331283 C92.7847818,145.331283 110.996378,137.217798 124.157811,124.04972 L124.157811,124.04972 Z M598.578528,85.9896547 L609.004456,42.6645733 L609.451883,42.6645733 L619.651883,85.9896547 L598.578528,85.9896547 Z M635.034945,3.31538762 L584.302958,3.31538762 L540.565889,141.397472 L585.468039,141.397472 L591.233642,118.924248 L627.661264,118.924248 L633.349342,141.397472 L679.755466,141.397472 L635.034945,3.31538762 Z M213.040678,104.475909 C195.453707,104.475909 181.124977,90.1826189 181.124977,72.6111531 C181.124977,55.0219674 195.453707,40.7486124 213.040678,40.7486124 C230.678593,40.7486124 244.956378,55.0219674 244.956378,72.6111531 C244.956378,90.1826189 230.678593,104.475909 213.040678,104.475909 L213.040678,104.475909 Z M213.040678,-0.000442996743 C172.874163,-0.000442996743 140.355987,32.4955831 140.355987,72.628873 C140.355987,112.810893 172.874163,145.331283 213.040678,145.331283 C253.249277,145.331283 285.763023,112.810893 285.763023,72.628873 C285.763023,32.4955831 253.249277,-0.000442996743 213.040678,-0.000442996743 L213.040678,-0.000442996743 Z" id="Fill-1" 
            fill="white" mask="url(#mask-2)"></path>
        </g>
    </g>
</svg>