<svg width="60px" height="60px" viewBox="0 0 1024 1024" style="display: inline-block; vertical-align: middle;"><path d="M 420.791 261.688 C 420.791 278.441 416.708 286.109 410.051 297.235 C 402.971 309.06 404.038 326.751 412.424 336.718 C 416.157 341.168 420.699 343.338 425.241 343.338 C 430.887 343.338 436.496 339.954 440.431 333.389 C 450.178 317.133 460.55 296.849 460.55 261.669 C 460.55 223.345 448.045 202.601 438.923 187.448 C 431.328 174.869 426.749 167.274 426.749 149.528 C 426.749 132.702 430.703 125.291 437.71 113.613 C 444.79 101.807 443.741 84.116 435.374 74.112 C 426.97 64.126 414.446 65.597 407.348 77.422 C 397.05 94.598 386.991 114.312 386.991 149.51 C 386.991 187.871 399.496 208.615 408.617 223.749 C 416.212 236.346 420.791 243.941 420.791 261.688 M 520.12 372.402 C 520.12 387.408 533.122 399.6 549.176 399.6 C 565.193 399.6 578.195 387.408 578.195 372.383 C 578.195 355.189 584.889 347.815 595.978 335.604 C 609.311 320.892 627.59 300.774 627.59 263.553 C 627.59 226.35 609.311 206.232 595.978 191.52 C 584.889 179.309 578.195 171.935 578.195 154.722 C 578.195 137.509 584.889 130.135 595.978 117.924 C 609.311 103.212 627.59 83.094 627.59 45.891 C 627.59 30.885 614.57 18.693 598.534 18.693 C 582.517 18.693 569.515 30.885 569.515 45.91 C 569.515 63.104 562.821 70.479 551.732 82.689 C 538.4 97.401 520.12 117.52 520.12 154.722 C 520.12 191.925 538.4 212.061 551.732 226.755 C 562.821 238.966 569.515 246.358 569.515 263.553 C 569.515 280.784 562.821 288.158 551.732 300.369 C 538.4 315.081 520.12 335.199 520.12 372.402 M 915.707 706.821 C 915.707 745.899 882.127 777.658 840.861 777.658 L 810.83 777.658 C 813.379 761.848 814.658 745.859 814.655 729.845 L 814.655 633.262 L 840.842 633.262 C 882.127 633.262 915.707 665.039 915.707 704.081 L 915.707 706.839 Z M 520.566 956.535 L 397.998 956.535 C 267.504 956.535 161.322 856.091 161.322 732.622 L 161.322 545.763 C 161.322 536.826 169.303 529.286 178.737 529.286 L 739.827 529.286 C 749.261 529.286 757.242 536.826 757.242 545.763 L 757.242 732.603 C 757.242 856.072 651.06 956.517 520.566 956.517 Z M 840.842 582.469 L 810.922 582.469 L 810.922 545.763 C 810.922 508.671 779.034 478.493 739.827 478.493 L 178.737 478.493 C 139.53 478.493 107.642 508.671 107.642 545.763 L 107.642 732.603 C 107.642 884.08 237.897 1007.31 398.016 1007.31 L 520.566 1007.31 C 645.046 1007.31 751.449 932.794 792.643 828.451 L 840.842 828.451 C 911.735 828.451 969.387 773.888 969.387 706.839 L 969.387 704.081 C 969.387 637.013 911.735 582.469 840.842 582.469 Z"></path></svg>