<svg width="60px" height="60px" viewBox="0 0 1024 1024" style="display: inline-block; vertical-align: middle;"><path d="M 880.06 961.279 L 144.19 961.279 C 134.179 961.279 126.029 953.148 126.029 943.137 L 126.152 943.137 L 126.152 831.117 L 898.099 831.117 L 898.099 943.137 L 898.239 943.137 C 898.239 953.148 890.09 961.279 880.06 961.279 Z M 121.34 539.002 L 903.455 539.002 C 913.466 539.002 921.633 547.135 921.633 557.145 L 921.633 601.406 C 901.208 606.972 887.788 617.915 877.198 626.627 C 865.008 636.638 857.631 642.68 840.368 642.68 C 823.103 642.68 815.725 636.638 803.537 626.627 C 788.714 614.455 768.41 597.77 731.017 597.77 C 693.608 597.77 673.322 614.455 658.499 626.627 C 646.31 636.638 638.95 642.68 621.686 642.68 C 604.421 642.68 597.062 636.638 584.856 626.627 C 570.049 614.455 549.747 597.77 512.354 597.77 C 474.944 597.77 454.658 614.455 439.834 626.627 C 427.645 636.638 420.286 642.68 403.021 642.68 C 385.758 642.68 378.398 636.638 366.192 626.627 C 351.385 614.455 331.081 597.77 293.689 597.77 C 256.279 597.77 235.993 614.455 221.188 626.627 C 208.981 636.638 201.622 642.68 184.375 642.68 C 167.11 642.68 159.751 636.638 147.561 626.627 C 136.988 617.932 123.571 606.972 103.18 601.406 L 103.18 557.145 C 103.18 547.135 111.329 539.002 121.34 539.002 Z M 450.074 408.857 C 450.074 388.66 463.616 374.047 477.034 368.479 C 480.476 367.075 484.604 365.897 488.925 365.897 C 494.07 365.897 499.461 367.55 504.275 372.362 C 515.253 383.329 533.042 383.329 544.021 372.362 C 547.761 368.602 558.88 367.706 570.979 372.712 C 584.153 378.157 598.203 390.522 598.203 408.857 C 598.135 449.724 565.004 482.823 524.138 482.852 C 483.273 482.823 450.141 449.724 450.074 408.857 Z M 126.17 680.985 C 139.676 690.294 157.643 698.829 184.392 698.829 C 221.804 698.829 242.071 682.144 256.893 669.989 C 269.082 659.979 276.442 653.921 293.707 653.921 C 310.971 653.921 318.331 659.961 330.52 669.989 C 345.343 682.162 365.647 698.829 403.038 698.829 C 440.45 698.829 460.736 682.144 475.54 669.989 C 487.748 659.979 495.106 653.921 512.372 653.921 C 529.635 653.921 536.995 659.961 549.184 669.989 C 564.007 682.162 584.311 698.829 621.703 698.829 C 659.113 698.829 679.399 682.144 694.205 669.989 C 706.413 659.979 713.77 653.921 731.035 653.921 C 748.3 653.921 755.676 659.961 767.867 669.989 C 782.69 682.162 802.992 698.829 840.402 698.829 C 866.817 698.829 884.662 690.505 898.116 681.319 L 898.116 774.984 L 126.17 774.984 L 126.17 680.985 Z M 977.818 557.163 C 977.818 516.188 944.448 482.87 903.455 482.87 L 631.222 482.87 C 646.342 461.154 654.433 435.32 654.406 408.857 C 654.406 370.956 630.098 336.409 592.495 320.849 C 582.943 316.886 572.837 314.428 562.532 313.559 C 567.977 289.059 583.643 274.393 613.711 264.17 C 634.175 257.209 639.426 230.704 623.165 216.464 C 615.617 209.856 605.119 207.775 595.622 211.007 C 542.405 229.097 512.863 262.222 505.785 311.803 C 488.939 308.215 471.395 309.895 455.535 316.616 C 418.394 332.274 394.15 368.553 393.888 408.857 C 393.888 436.328 402.477 461.828 417.072 482.852 L 121.34 482.852 C 80.316 482.892 47.061 516.123 46.994 557.145 L 46.994 618.81 C 46.994 619.97 47.187 621.059 47.344 622.182 C 47.17 623.396 46.959 624.59 46.959 625.854 C 46.959 639.606 56.882 651.006 69.966 653.41 L 69.966 943.137 L 69.827 943.137 C 69.895 984.125 103.095 1017.342 144.085 1017.43 L 880.077 1017.43 C 921.108 1017.4 954.374 984.167 954.442 943.137 L 954.318 943.137 L 954.318 653.464 C 967.851 651.247 977.793 639.565 977.818 625.854 C 977.818 624.642 977.608 623.5 977.468 622.341 C 977.608 621.164 977.818 620.022 977.818 618.828 L 977.818 557.145 Z"></path></svg>